{"title":"Hair Pies (2010)","uid":6711941,"size":1874112308,"categoryP":"porn","categoryS":"movies","magnet":"?xt=urn:btih:bb838977044a391c51526562d3dcb50af9d74c43&amp;dn=Hair+Pies+%282010%29&amp;tr=udp%3A%2F%2Ftracker.openbittorrent.com%3A80&amp;tr=udp%3A%2F%2Fopen.demonii.com%3A1337&amp;tr=udp%3A%2F%2Ftracker.coppersurfer.tk%3A6969&amp;tr=udp%3A%2F%2Fexodus.desync.com%3A6969","seeders":0,"leechers":0,"uploader":"silviuss","files":1,"time":1317344255,"description":"Hair Pies (2010)\n\nCover: &lt;a href=&quot;\nhttp://imagebb.org/view.php?filename=659v45v4.jpg&quot; rel=&quot;nofollow&quot; target=&quot;_NEW&quot;&gt;\nhttp://imagebb.org/view.php?filename=659v45v4.jpg&lt;/a&gt;\n\nPreview: &lt;a href=&quot;\nhttp://imagebb.org/view.php?filename=890Hair_Pies_2010_s.jpg&quot; rel=&quot;nofollow&quot; target=&quot;_NEW&quot;&gt;\nhttp://imagebb.org/view.php?filename=890Hair_Pies_2010_s.jpg&lt;/a&gt;\n\n\n\nInfo:\nFormat                           : Windows Media\nFile size                        : 1.75 GiB\nDuration                         : 1h 58mn\nOverall bit rate mode            : Constant\nOverall bit rate                 : 2 111 Kbps\nMaximum Overall bit rate         : 2 123 Kbps\nEncoded date                     : UTC 2011-08-16 17:20:43.232\n\nVideo\nID                               : 2\nFormat                           : VC-1\nFormat profile                   : MP@HL\nCodec ID                         : WMV3\nCodec ID/Info                    : Windows Media Video 9\nCodec ID/Hint                    : WMV3\nDescription of the codec         : VC-1 - Main Profile\nDuration                         : 1h 58mn\nBit rate mode                    : Constant\nBit rate                         : 1 975 Kbps\nWidth                            : 848 pixels\nHeight                           : 480 pixels\nDisplay aspect ratio             : 16:9\nFrame rate                       : 29.970 fps\nBit depth                        : 8 bits\nScan type                        : Progressive\nCompression mode                 : Lossy\nBits/(Pixel*Frame)               : 0.162\nStream size                      : 1.63 GiB (94%)\n\nAudio\nID                               : 1\nFormat                           : WMA\nFormat version                   : Version 2\nCodec ID                         : 161\nCodec ID/Info                    : Windows Media Audio\nDescription of the codec         : Windows Media Audio 9.2 -  64 kbps, 44 kHz, stereo (A/V) 1-pass CBR\nDuration                         : 1h 58mn\nBit rate mode                    : Constant\nBit rate                         : 128 Kbps\nChannel(s)                       : 2 channels\nSampling rate                    : 44.1 KHz\nBit depth                        : 16 bits\nStream size                      : 108 MiB (6%)","torrent":{"xt":"urn:btih:bb838977044a391c51526562d3dcb50af9d74c43","amp;dn":"Hair+Pies+%282010%29","amp;tr":["udp%3A%2F%2Ftracker.openbittorrent.com%3A80","udp%3A%2F%2Fopen.demonii.com%3A1337","udp%3A%2F%2Ftracker.coppersurfer.tk%3A6969","udp%3A%2F%2Fexodus.desync.com%3A6969"],"infoHash":"bb838977044a391c51526562d3dcb50af9d74c43","infoHashBuffer":{"type":"Buffer","data":[187,131,137,119,4,74,57,28,81,82,101,98,211,220,181,10,249,215,76,67]},"announce":[],"urlList":[]}}